<?xml version="1.0" standalone="no"?>
<!DOCTYPE svg PUBLIC "-//W3C//DTD SVG 20010904//EN"
 "http://www.w3.org/TR/2001/REC-SVG-20010904/DTD/svg10.dtd">
<svg version="1.0" xmlns="http://www.w3.org/2000/svg"
 width="5108.000000pt" height="3831.000000pt" viewBox="0 0 5108.000000 3831.000000"
 preserveAspectRatio="xMidYMid meet">

<g transform="translate(0.000000,3831.000000) scale(0.100000,-0.100000)"
fill="#000000" stroke="none">
<path d="M25945 34570 c-1533 -102 -2940 -539 -4230 -1313 -1268 -761 -2349
-1845 -3104 -3112 -535 -897 -753 -1539 -754 -2220 -1 -307 32 -521 120 -787
179 -543 560 -991 1106 -1303 1004 -574 1993 -369 2830 585 194 221 330 412
552 775 458 750 908 1294 1430 1730 665 555 1369 867 2172 962 205 24 649 24
858 -1 376 -44 700 -117 1075 -244 931 -316 1723 -892 2283 -1661 374 -512
641 -1127 766 -1761 175 -887 65 -1916 -303 -2850 -69 -173 -231 -510 -323
-670 -646 -1121 -1663 -1914 -2828 -2204 -415 -104 -800 -144 -1275 -132 -794
19 -1584 151 -2429 406 -954 288 -1849 707 -3206 1500 -581 340 -995 596
-2252 1396 -1812 1153 -2373 1488 -3123 1862 -488 244 -886 421 -1350 600
-2466 949 -5085 1195 -7797 732 -569 -97 -847 -179 -1211 -355 -370 -180 -635
-367 -912 -645 -248 -248 -425 -492 -578 -798 -217 -435 -316 -855 -315 -1342
0 -340 48 -639 155 -970 161 -498 397 -891 747 -1241 241 -240 466 -401 776
-554 360 -178 703 -275 1129 -321 201 -22 570 -22 776 0 244 26 393 55 1250
246 1263 280 1781 383 2445 484 1466 224 2795 227 4165 11 1919 -303 3840
-1032 5925 -2250 482 -281 878 -529 1495 -935 621 -408 907 -577 1400 -824
703 -352 1262 -562 1965 -739 878 -222 1704 -319 2444 -289 971 40 1694 193
2420 514 444 195 726 369 1521 936 1125 803 1842 1463 2398 2207 756 1011
1203 2221 1401 3790 40 316 72 668 73 780 0 148 -79 1239 -118 1625 -253 2536
-1530 4900 -3494 6471 -1296 1037 -2802 1668 -4435 1859 -389 45 -518 52
-1020 55 -269 2 -548 -1 -620 -5z"/>
<path d="M12335 19463 c-27 -1 -131 -7 -230 -13 -1344 -79 -2728 -413 -3844
-929 -718 -331 -1331 -807 -1736 -1346 -334 -446 -531 -917 -606 -1455 -21
-144 -18 -573 4 -725 54 -363 155 -682 323 -1018 174 -346 364 -609 633 -877
500 -497 1113 -793 1780 -860 132 -13 439 -13 572 0 339 34 694 127 1032 271
350 150 598 295 1057 620 694 492 1338 879 2025 1219 1698 840 3402 1237 5170
1207 193 -4 420 -11 505 -17 1244 -83 2391 -335 3708 -814 l43 -15 -33 45
c-18 25 -96 125 -174 222 -758 948 -1703 1794 -2759 2469 -1878 1201 -4068
1896 -6345 2013 -173 9 -994 11 -1125 3z"/>
<path d="M44220 15689 c-367 -42 -778 -216 -1250 -532 -199 -133 -471 -332
-1295 -946 -1453 -1081 -2030 -1483 -2796 -1942 -1723 -1033 -3383 -1555
-5389 -1694 -499 -35 -1306 -30 -1885 11 -1301 92 -2713 352 -4230 779 -170
48 -318 90 -329 93 -21 6 -3 -19 240 -323 1422 -1783 3080 -3018 4954 -3690
1242 -445 2635 -653 4072 -607 2915 93 5331 927 7202 2486 428 356 875 806
1256 1261 485 581 966 1308 1316 1990 161 314 237 529 285 800 32 183 33 458
1 627 -86 461 -351 873 -785 1222 -447 359 -909 517 -1367 465z"/>
</g>
</svg>
